<?xml version="1.0" encoding="UTF-8" standalone="no"?>
<!-- Created with Inkscape (http://www.inkscape.org/) -->

<svg
   xmlns:dc="http://purl.org/dc/elements/1.1/"
   xmlns:cc="http://creativecommons.org/ns#"
   xmlns:rdf="http://www.w3.org/1999/02/22-rdf-syntax-ns#"
   xmlns:svg="http://www.w3.org/2000/svg"
   xmlns="http://www.w3.org/2000/svg"
   xmlns:sodipodi="http://sodipodi.sourceforge.net/DTD/sodipodi-0.dtd"
   xmlns:inkscape="http://www.inkscape.org/namespaces/inkscape"
   version="1.0"
   width="24"
   height="24"
   id="svg3215"
   sodipodi:version="0.32"
   inkscape:version="0.48.0 r9654"
   sodipodi:docname="filestalker-error.svg"
   inkscape:output_extension="org.inkscape.output.svg.inkscape">
  <metadata
     id="metadata8">
    <rdf:RDF>
      <cc:Work
         rdf:about="">
        <dc:format>image/svg+xml</dc:format>
        <dc:type
           rdf:resource="http://purl.org/dc/dcmitype/StillImage" />
        <dc:title />
      </cc:Work>
    </rdf:RDF>
  </metadata>
  <sodipodi:namedview
     inkscape:window-height="825"
     inkscape:window-width="1440"
     inkscape:pageshadow="2"
     inkscape:pageopacity="0.0"
     guidetolerance="10.0"
     gridtolerance="10.0"
     objecttolerance="10.0"
     borderopacity="1.0"
     bordercolor="#666666"
     pagecolor="#ffffff"
     id="base"
     showgrid="false"
     inkscape:zoom="20.75"
     inkscape:cx="5.4600676"
     inkscape:cy="9.3286099"
     inkscape:window-x="0"
     inkscape:window-y="24"
     inkscape:current-layer="svg3215"
     inkscape:window-maximized="1" />
  <defs
     id="defs3217" />
  <path
     style="opacity:1;fill:#ff0808;fill-opacity:1;stroke:none"
     d="M 8.09375,4.09375 5.875,9.78125 5.75,10.125 5.375,10.09375 3.40625,9.875 l 3.03125,5.25 0.1875,0.3125 -0.25,0.28125 -1.40625,1.40625 6,0.875 0.375,0.0625 0.0625,0.375 L 11.625,20.375 16.0625,16.28125 16.34375,16 l 0.3125,0.21875 1.6875,1.0625 -0.46875,-6.0625 -0.03125,-0.375 0.375,-0.125 1.84375,-0.65625 -5,-3.40625 -0.34375,-0.21875 0.125,-0.375 L 15.5,4.21875 9.71875,6 9.34375,6.125 9.15625,5.78125 z"
     id="path2987"
     inkscape:connector-curvature="0"
     sodipodi:nodetypes="ccccccccccccccccccccccccccccc" />
  <path
     style="font-size:medium;font-style:normal;font-variant:normal;font-weight:normal;font-stretch:normal;text-indent:0;text-align:start;text-decoration:none;line-height:normal;letter-spacing:normal;word-spacing:normal;text-transform:none;direction:ltr;block-progression:tb;writing-mode:lr-tb;text-anchor:start;baseline-shift:baseline;opacity:0.59999999999999998;color:#000000;fill:#3a3935;fill-opacity:1;fill-rule:nonzero;stroke:none;stroke-width:1;marker:none;visibility:visible;display:inline;overflow:visible;enable-background:accumulate;font-family:Sans;-inkscape-font-specification:Sans"
     d="m 7.9039909,1.8987197 -0.375,0.9375 -2.4375,6.21875 -2.5625,-0.3125 -0.96875,-0.125 0.5,0.875 3.3125,5.7812503 -1.8125,1.8125 -0.71875,0.6875 1,0.15625 6.5937501,1 0.28125,2.5625 0.09375,1 0.75,-0.6875 4.90625,-4.53125 2.15625,1.375 0.84375,0.53125 -0.0625,-1 -0.5,-6.65625 2.40625,-0.84375 0.96875,-0.3125 -0.84375,-0.5625003 -5.5,-3.78125 0.84375,-2.40625 0.34375,-0.9375 -0.96875,0.28125 -6.3437501,1.96875 -1.375,-2.1875 -0.53125,-0.84375 z m 0.1875,2.1875 1.0625,1.6875 0.1875,0.34375 0.375,-0.125 5.7812501,-1.78125 -0.65625,1.84375 -0.125,0.375 0.34375,0.21875 5,3.4062503 -1.84375,0.65625 -0.375,0.125 0.03125,0.375 0.46875,6.0625 -1.6875,-1.0625 -0.3125,-0.21875 -0.28125,0.28125 -4.4375,4.09375 -0.21875,-1.9375 -0.0625,-0.375 -0.375,-0.0625 -6.0000001,-0.875 1.40625,-1.40625 0.25,-0.28125 -0.1875,-0.3125 -3.03125,-5.2500003 1.96875,0.2187503 0.375,0.03125 0.125,-0.3437503 2.21875,-5.6875 z"
     id="path7522"
     inkscape:connector-curvature="0" />
</svg>
